<svg width="37" height="37" viewBox="0 0 37 37" fill="none" xmlns="http://www.w3.org/2000/svg">
<path d="M18.5 0.791504L34.7146 10.4665C35.2521 10.795 35.6701 11.2429 35.9687 11.8103C36.2673 12.3776 36.4166 12.9748 36.4166 13.6019V33.0415C36.4166 34.0269 36.0658 34.8705 35.364 35.5722C34.6623 36.274 33.8187 36.6248 32.8333 36.6248H4.16665C3.18123 36.6248 2.33765 36.274 1.63592 35.5722C0.934181 34.8705 0.583313 34.0269 0.583313 33.0415V13.6019C0.583313 12.9748 0.732619 12.3776 1.03123 11.8103C1.32984 11.2429 1.7479 10.795 2.2854 10.4665L18.5 0.791504ZM18.5 21.6644L32.475 13.3332L18.5 5.00192L4.52498 13.3332L18.5 21.6644ZM18.5 25.8748L4.16665 17.2748V33.0415H32.8333V17.2748L18.5 25.8748Z" fill="white"/>
</svg>
