<svg width="27" height="41" viewBox="0 0 27 41" fill="none" xmlns="http://www.w3.org/2000/svg">
<path d="M6.33331 15.1248V11.5415H20.6666V15.1248H6.33331ZM4.54165 40.2082C3.55623 40.2082 2.71265 39.8573 2.01092 39.1556C1.30918 38.4538 0.958313 37.6103 0.958313 36.6248V4.37484C0.958313 3.38942 1.30918 2.54584 2.01092 1.84411C2.71265 1.14237 3.55623 0.791504 4.54165 0.791504H22.4583C23.4437 0.791504 24.2873 1.14237 24.989 1.84411C25.6908 2.54584 26.0416 3.38942 26.0416 4.37484V36.6248C26.0416 37.6103 25.6908 38.4538 24.989 39.1556C24.2873 39.8573 23.4437 40.2082 22.4583 40.2082H4.54165ZM4.54165 34.8332V36.6248H22.4583V34.8332H4.54165ZM4.54165 31.2498H22.4583V9.74984H4.54165V31.2498ZM4.54165 6.1665H22.4583V4.37484H4.54165V6.1665Z" fill="white"/>
</svg>
